<?xml version="1.0" encoding="iso-8859-1"?>
<!-- Generator: Adobe Illustrator 21.0.0, SVG Export Plug-In . SVG Version: 6.00 Build 0)  -->
<svg version="1.1" id="Layer_1" xmlns="http://www.w3.org/2000/svg" xmlns:xlink="http://www.w3.org/1999/xlink" x="0px" y="0px"
	 viewBox="0 0 100.353 100.353" style="enable-background:new 0 0 100.353 100.353;" xml:space="preserve">
<path d="M88.588,62.597L70.114,33.322l7.801-12.186c1.731-2.702,2.422-5.877,1.847-8.494c-0.396-1.804-1.342-3.229-2.738-4.121
	l-0.432-0.279c-3.564-2.276-8.759-0.312-11.829,4.476l-7.333,11.46l-40.773-3.807c-0.563-0.054-1.101,0.212-1.403,0.686
	l-3.021,4.724c-0.248,0.387-0.304,0.865-0.154,1.299c0.15,0.434,0.491,0.775,0.925,0.926L47.34,39.944L34.379,60.199l-20.245,1.967
	c-0.526,0.051-0.986,0.375-1.211,0.853l-1.601,3.393c-0.2,0.424-0.19,0.918,0.026,1.334c0.217,0.416,0.616,0.707,1.079,0.785
	L35.776,72.5l13.383,19.538c0.265,0.387,0.695,0.627,1.164,0.65c0.024,0.001,0.049,0.002,0.074,0.002
	c0.442,0,0.862-0.195,1.148-0.535l2.415-2.873c0.34-0.405,0.442-0.959,0.268-1.459L47.53,68.614l12.621-19.722l23.148,20.351
	c0.329,0.289,0.768,0.421,1.199,0.359c0.433-0.061,0.818-0.308,1.054-0.675l3.028-4.72C88.897,63.717,88.899,63.089,88.588,62.597z
	 M83.972,65.839l-23.15-20.352c-0.328-0.289-0.766-0.418-1.2-0.359c-0.433,0.061-0.818,0.309-1.054,0.677L44.612,67.613
	c-0.248,0.388-0.304,0.868-0.153,1.302l6.657,19.091l-0.596,0.709L37.973,70.397c-0.113-0.165-0.257-0.305-0.425-0.414l-0.215-0.139
	c-0.17-0.109-0.361-0.184-0.561-0.218l-21.891-3.721l0.394-0.834l20.123-1.955c0.458-0.045,0.871-0.297,1.119-0.685l14.378-22.47
	c0.247-0.387,0.304-0.866,0.154-1.3c-0.15-0.434-0.491-0.775-0.925-0.926L15.787,25.797l1.504-2.353l40.773,3.807
	c0.562,0.053,1.101-0.212,1.403-0.685l7.824-12.229c2.09-3.261,5.611-4.894,7.672-3.575l0.449,0.29
	c0.894,0.571,1.266,1.53,1.421,2.234c0.408,1.856-0.132,4.186-1.443,6.232l-8.316,12.99c-0.314,0.49-0.316,1.117-0.005,1.609
	l18.473,29.274L83.972,65.839z"/>
</svg>
